Coordinates
version=1
nRows=24
nColumns=38
inDegrees=no

Units are S.I. units (second, meters, Newtons, ...)
If the header above contains a line with 'inDegrees', this indicates whether rotational values are in degrees (yes) or radians (no).

endheader
time	pelvis_tilt	pelvis_list	pelvis_rotation	pelvis_tx	pelvis_ty	pelvis_tz	hip_flexion_r	hip_adduction_r	hip_rotation_r	knee_angle_r	ankle_angle_r	subtalar_angle_r	mtp_angle_r	hip_flexion_l	hip_adduction_l	hip_rotation_l	knee_angle_l	ankle_angle_l	subtalar_angle_l	mtp_angle_l	lumbar_extension	lumbar_bending	lumbar_rotation	arm_flex_r	arm_add_r	arm_rot_r	elbow_flex_r	pro_sup_r	wrist_flex_r	wrist_dev_r	arm_flex_l	arm_add_l	arm_rot_l	elbow_flex_l	pro_sup_l	wrist_flex_l	wrist_dev_l
3.25	0.00416191	-0.0184903	-0.0677115	1.6076	0.962509	-0.484378	-0.259062	0.0287202	0.172493	0.140702	0.31934	0.039315	-0.0230796	0.434759	-0.0448559	0.0332362	0.0829079	0.0739256	-0.051797	-0.0251533	-0.234009	0.0106511	0.136445	0.0734394	-0.206232	-0.0557018	1.28143	1.07853	0.00139679	-0.000244118	-0.31441	-0.055428	-0.133525	0.616707	1.40295	0.00236563	-0.0017668
3.255	0.00573187	-0.0175852	-0.0692786	1.61446	0.961898	-0.484511	-0.2634	0.0264781	0.168709	0.149779	0.318975	0.0432371	-0.0230796	0.434284	-0.043074	0.0328598	0.0923273	0.0732538	-0.0536	-0.0251533	-0.234669	0.00753797	0.137256	0.0721274	-0.20521	-0.0555549	1.28032	1.07967	0.00139679	-0.000244118	-0.313349	-0.0558755	-0.132362	0.616012	1.40312	0.00236563	-0.0017668
3.26	0.00727536	-0.0167193	-0.0708227	1.62139	0.961324	-0.484643	-0.267209	0.0242699	0.164591	0.159884	0.318146	0.0471607	-0.0230796	0.433893	-0.0412881	0.0322281	0.103652	0.0724249	-0.0555035	-0.0251533	-0.235115	0.00441412	0.138044	0.0701743	-0.203993	-0.055621	1.27877	1.08081	0.00139679	-0.000244118	-0.312076	-0.0565207	-0.131019	0.615265	1.40333	0.00236563	-0.0017668
3.265	0.00875048	-0.0159529	-0.0723511	1.62841	0.960782	-0.484774	-0.270424	0.0221521	0.160167	0.171055	0.316804	0.0510828	-0.0230796	0.433578	-0.0395853	0.0314116	0.116643	0.071411	-0.0574713	-0.0251533	-0.235323	0.0013495	0.13882	0.0675981	-0.20259	-0.0558729	1.2768	1.08193	0.00139679	-0.000244118	-0.310604	-0.0573506	-0.129514	0.614483	1.40357	0.00236563	-0.0017668
3.27	0.0101039	-0.0153403	-0.0738445	1.63549	0.960265	-0.484902	-0.272967	0.020179	0.155442	0.183332	0.314897	0.0550062	-0.0230796	0.433353	-0.038039	0.0305011	0.131021	0.0701911	-0.0594569	-0.0251533	-0.235268	-0.00158446	0.139571	0.0644326	-0.201006	-0.0562794	1.27441	1.08302	0.00139679	-0.000244118	-0.308943	-0.058347	-0.127865	0.613687	1.40386	0.00236563	-0.0017668
3.275	0.0112784	-0.0149187	-0.0752539	1.64263	0.959767	-0.485035	-0.274752	0.0183925	0.150395	0.196759	0.312379	0.058941	-0.0230796	0.433248	-0.0366958	0.0295972	0.146482	0.0687535	-0.0614073	-0.0251533	-0.234925	-0.00432462	0.140253	0.0607259	-0.199247	-0.0568036	1.2716	1.08408	0.00139679	-0.000244118	-0.307104	-0.0594881	-0.12609	0.612899	1.40421	0.00236563	-0.0017668
3.28	0.0122321	-0.0147038	-0.0765181	1.64983	0.959282	-0.485177	-0.275697	0.0168104	0.144983	0.211381	0.309204	0.0629029	-0.0230796	0.433305	-0.0355659	0.0287949	0.162713	0.0670976	-0.0632659	-0.0251533	-0.234273	-0.00682765	0.140795	0.0565398	-0.197317	-0.0574022	1.26835	1.08507	0.00139679	-0.000244118	-0.305101	-0.0607491	-0.124202	0.612143	1.4046	0.00236563	-0.0017668
3.285	0.0129423	-0.0146834	-0.0775722	1.65707	0.958805	-0.485338	-0.275726	0.015418	0.139149	0.227243	0.305325	0.066905	-0.0230796	0.433565	-0.0346182	0.0281679	0.179416	0.0652358	-0.064978	-0.0251533	-0.233305	-0.00908012	0.14111	0.0519463	-0.19522	-0.0580269	1.26467	1.08597	0.00139679	-0.000244118	-0.302945	-0.0621031	-0.122213	0.611445	1.40499	0.00236563	-0.0017668
3.29	0.0134029	-0.0148147	-0.0783548	1.66436	0.958335	-0.485524	-0.274782	0.0141635	0.132844	0.244391	0.300692	0.0709468	-0.0230796	0.43406	-0.0337849	0.0277531	0.196337	0.0631948	-0.0664956	-0.0251533	-0.232029	-0.0111044	0.141106	0.0470245	-0.192961	-0.0586274	1.26054	1.08677	0.00139679	-0.000244118	-0.300651	-0.0635211	-0.12014	0.610835	1.40536	0.00236563	-0.0017668
3.295	0.013629	-0.0150227	-0.0788162	1.67168	0.95788	-0.485745	-0.272824	0.0129615	0.126044	0.262872	0.295241	0.0750027	-0.0230796	0.434802	-0.0329731	0.0275424	0.213276	0.0610207	-0.0677845	-0.0251533	-0.230466	-0.0129574	0.140711	0.0418552	-0.190547	-0.059153	1.25593	1.08744	0.00139679	-0.000244118	-0.298237	-0.0649733	-0.118	0.610344	1.4057	0.00236563	-0.0017668
3.3	0.0136461	-0.0152135	-0.0789365	1.67903	0.957451	-0.486007	-0.269829	0.0117021	0.118769	0.282727	0.288893	0.0790126	-0.0230796	0.43578	-0.0320818	0.0274798	0.230093	0.0587843	-0.0688302	-0.0251533	-0.228651	-0.0147234	0.13988	0.0365157	-0.187987	-0.059555	1.25084	1.08799	0.00139679	-0.000244118	-0.295721	-0.0664299	-0.115811	0.610002	1.40598	0.00236563	-0.0017668
3.305	0.0134841	-0.0152891	-0.0787363	1.68641	0.957062	-0.486311	-0.26578	0.010264	0.111091	0.303995	0.281549	0.082878	-0.0230796	0.436955	-0.0310193	0.0274676	0.24669	0.0565854	-0.0696412	-0.0251533	-0.226618	-0.0165023	0.138614	0.0310746	-0.185292	-0.0597909	1.24526	1.08841	0.00139679	-0.000244118	-0.293131	-0.0678617	-0.113599	0.609844	1.40619	0.00236563	-0.0017668
3.31	0.0131729	-0.0151556	-0.0782767	1.6938	0.956721	-0.486657	-0.260661	0.00853053	0.103135	0.326708	0.273091	0.086465	-0.0230796	0.438273	-0.0297156	0.0273833	0.263	0.054551	-0.0702501	-0.0251533	-0.224389	-0.0183956	0.136955	0.025588	-0.182476	-0.0598263	1.23917	1.08874	0.00139679	-0.000244118	-0.290496	-0.0692421	-0.111387	0.609902	1.40634	0.00236563	-0.0017668
3.315	0.0127241	-0.0147352	-0.0776476	1.7012	0.95643	-0.48704	-0.254443	0.00640108	0.0950645	0.35089	0.263383	0.0896138	-0.0230796	0.439672	-0.0281276	0.0271001	0.278969	0.0528274	-0.0707107	-0.0251533	-0.221969	-0.0204951	0.134977	0.020098	-0.179551	-0.059636	1.23257	1.08901	0.00139679	-0.000244118	-0.287852	-0.0705498	-0.1092	0.610207	1.40643	0.00236563	-0.0017668
3.32	0.0121285	-0.0139694	-0.0769508	1.70862	0.956188	-0.487454	-0.24709	0.00379809	0.0870648	0.376555	0.252286	0.0921539	-0.0230796	0.441094	-0.0262355	0.026509	0.294544	0.0515684	-0.0710923	-0.0251533	-0.219341	-0.0228762	0.132775	0.0146338	-0.176531	-0.0592062	1.22547	1.0893	0.00139679	-0.000244118	-0.285234	-0.0717701	-0.107065	0.610786	1.40648	0.00236563	-0.0017668
3.325	0.0113617	-0.012818	-0.0762849	1.71604	0.955988	-0.487891	-0.238553	0.000670344	0.0793182	0.403708	0.239664	0.0939219	-0.0230796	0.442492	-0.0240357	0.0255368	0.309676	0.050923	-0.0714723	-0.0251533	-0.216476	-0.0255935	0.130443	0.0092147	-0.173425	-0.0585318	1.21786	1.08963	0.00139679	-0.000244118	-0.282676	-0.0728977	-0.105003	0.611664	1.40653	0.00236563	-0.0017668
3.33	0.0103911	-0.0112598	-0.0757311	1.72347	0.955821	-0.488343	-0.228779	-0.00300816	0.0719866	0.432351	0.225409	0.0947784	-0.0230796	0.443839	-0.0215317	0.0241567	0.324322	0.0510248	-0.071927	-0.0251533	-0.213334	-0.02868	0.12806	0.00385336	-0.170236	-0.0576153	1.20976	1.09002	0.00139679	-0.000244118	-0.280201	-0.0739374	-0.103032	0.612863	1.40657	0.00236563	-0.0017668
3.335	0.00918529	-0.00928977	-0.0753431	1.73089	0.955681	-0.488806	-0.217721	-0.00724156	0.0651983	0.462484	0.209461	0.0946239	-0.0230796	0.445123	-0.0187273	0.0223901	0.338449	0.0519836	-0.0725228	-0.0251533	-0.209889	-0.0321485	0.125679	-0.0014395	-0.16697	-0.0564671	1.20117	1.09047	0.00139679	-0.000244118	-0.277823	-0.0749029	-0.101159	0.6144	1.40657	0.00236563	-0.0017668
3.34	0.00773194	-0.00691655	-0.0751439	1.73831	0.95556	-0.489276	-0.205352	-0.0120155	0.0590434	0.494108	0.191833	0.0934101	-0.0230796	0.446333	-0.0156228	0.0203007	0.35204	0.0538796	-0.0733059	-0.0251533	-0.206139	-0.0359922	0.123325	-0.00665179	-0.163627	-0.0551065	1.19211	1.09097	0.00139679	-0.000244118	-0.27554	-0.0758132	-0.0993953	0.61629	1.40654	0.00236563	-0.0017668
3.345	0.00604584	-0.00416354	-0.0751321	1.7457	0.955461	-0.489751	-0.19167	-0.017296	0.0535774	0.527227	0.172635	0.0911456	-0.0230796	0.44746	-0.0122187	0.0179835	0.36509	0.0567608	-0.074294	-0.0251533	-0.202115	-0.0401829	0.120994	-0.0117684	-0.160209	-0.0535601	1.18259	1.09153	0.00139679	-0.000244118	-0.273335	-0.0766895	-0.0977474	0.618547	1.40645	0.00236563	-0.0017668
3.35	0.00416794	-0.00107105	-0.0752886	1.75305	0.955383	-0.490231	-0.176702	-0.0230278	0.0488313	0.561839	0.152091	0.0878981	-0.0230796	0.448482	-0.00852192	0.01555	0.377606	0.0606408	-0.0754718	-0.0251533	-0.197884	-0.0446694	0.118662	-0.0167708	-0.156725	-0.0518595	1.17263	1.09212	0.00139679	-0.000244118	-0.271178	-0.077552	-0.0962181	0.62118	1.40629	0.00236563	-0.0017668
3.355	0.00216366	0.00230305	-0.0755836	1.76035	0.955329	-0.490719	-0.160509	-0.0291329	0.0448228	0.597919	0.130547	0.0837945	-0.0230796	0.44936	-0.00455312	0.0131125	0.389596	0.0654994	-0.0767918	-0.0251533	-0.193544	-0.0493782	0.116296	-0.0216382	-0.153186	-0.0500425	1.16226	1.09276	0.00139679	-0.000244118	-0.269029	-0.0784157	-0.0948139	0.624198	1.40604	0.00236563	-0.0017668
3.36	0.000109245	0.00588349	-0.0759813	1.7676	0.955296	-0.491216	-0.143183	-0.0355078	0.0415686	0.635397	0.108455	0.079016	-0.0230796	0.450046	-0.000353842	0.010769	0.401068	0.0712849	-0.0781803	-0.0251533	-0.189207	-0.0542147	0.113859	-0.0263501	-0.149611	-0.0481486	1.15148	1.09347	0.00139679	-0.000244118	-0.266843	-0.0792904	-0.0935391	0.627605	1.40572	0.00236563	-0.0017668
3.365	-0.00192234	0.00958169	-0.0764473	1.77476	0.955283	-0.491724	-0.124842	-0.0420252	0.0390922	0.674133	0.0863468	0.0737905	-0.0230796	0.450483	0.00400995	0.00859099	0.41202	0.0779194	-0.0795459	-0.0251533	-0.184988	-0.0590687	0.111329	-0.0308889	-0.146022	-0.0462164	1.14033	1.09425	0.00139679	-0.000244118	-0.264573	-0.0801806	-0.0923966	0.631401	1.40531	0.00236563	-0.0017668
